<?xml version="1.0" encoding="UTF-8"?> <svg xmlns="http://www.w3.org/2000/svg" width="120.498" height="114.719" viewBox="0 0 120.498 114.719"><g id="Group_95" data-name="Group 95" transform="translate(-337.04 -1920.675)"><path id="Path_265" data-name="Path 265" d="M2335.5,261.154h32.318V211.5h28.252v21.189s21.189,11.343,42.805,7.705a25.547,25.547,0,0,0,12.2,4.923v15.838l4.923,9.417s-3.424,9.845-3,15.41c0,0-8.347,1.5-13.056,7.705,0,0-4.281,4.281-9.2,5.351,0,0-16.908,6.635-7.919,24.827l-2.354,2.354s-3.425-2.568-6.635-2.568c0,0-10.38-1.605-12.52-10.38,0,0-.428-5.137-3.425-7.705,0,0-5.993-6.207-7.277-11.557,0,0-3.639-9.631-13.27-9.417,0,0-7.491-.856-7.063,5.779,0,0-2.354,2.14-2.354,3,0,0-1.5.856-10.488-5.137a8.6,8.6,0,0,1-4.066-7.7s-.642-3.21-6.207-6.849l-5.565-5.565-2.569-1.07-1.284-2.782-1.927-.856Z" transform="translate(-1998.46 1709.175)" fill="#fff"></path><path id="Path_261" data-name="Path 261" d="M424.434,332.329a7.06,7.06,0,0,0-6.649-.72,7.343,7.343,0,0,0-3.7,4.047,7.348,7.348,0,0,0-3.7-4.047,7.06,7.06,0,0,0-6.65.72,7.143,7.143,0,0,0-2.561,5.7,7.674,7.674,0,0,0,.147,1.364,9.449,9.449,0,0,0,.436,1.535,10.875,10.875,0,0,0,1.328,2.5,19.1,19.1,0,0,0,3.445,3.4c2.763,2.3,4.788,4.117,7.551,6.416,2.762-2.3,4.788-4.116,7.55-6.416a19.1,19.1,0,0,0,3.445-3.4,10.818,10.818,0,0,0,.989-1.739,10.173,10.173,0,0,0,.57-1.535,8.192,8.192,0,0,0,.351-2.122A7.143,7.143,0,0,0,424.434,332.329Z" transform="translate(3.711 1647.305)" fill="#ffc13c"></path></g></svg> 