<?xml version="1.0" encoding="UTF-8"?> <!-- Generator: Adobe Illustrator 24.0.3, SVG Export Plug-In . SVG Version: 6.00 Build 0) --> <svg xmlns="http://www.w3.org/2000/svg" xmlns:xlink="http://www.w3.org/1999/xlink" version="1.1" id="Layer_1" x="0px" y="0px" viewBox="0 0 549.2 496.1" style="enable-background:new 0 0 549.2 496.1;" xml:space="preserve"> <style type="text/css"> .st0{fill:#FFFFFF;} .st1{fill:#2E83FF;} .st2{fill:#2979F0;} .st3{fill:#203D76;stroke:#7DAAFF;stroke-width:6;} .st4{fill:#7DAAFF;} .st5{fill:#FFC13C;} .st6{fill:none;stroke:#2979F0;stroke-width:6;stroke-miterlimit:10;} .st7{fill:#203D76;} .st8{enable-background:new ;} .st9{fill:none;stroke:#FFFFFF;stroke-width:2.0009;stroke-miterlimit:10.0045;} .st10{fill:none;stroke:#FFFFFF;stroke-width:2.0009;stroke-miterlimit:10.0045;stroke-dasharray:7.0032,4.502;} </style> <g id="Group_427" transform="translate(-1041 -3191.023)"> <g id="Group_110" transform="translate(1052 3096.001)"> <path id="Path_303" class="st0" d="M237.8,350.6c0.4,1.1,1,2.1,1.8,2.9c0.7,0.7,1.6,1.3,2.5,1.8c1.2,0.6,2.6,0.9,3.9,1.1 c4.5,0.4,9-0.3,13.1-2.2c1.5-0.7,2.5-0.9,3.8,0.2c0.8,0.6,6.5,5.3,6.5,5.3c1.1,0.8,0.9,1.1,0,1.8s-3.4,2.4-3.4,2.4 c-7.7,4.9-17.4,7.2-26.4,5.1c-6.4-1.4-12-5.6-15.2-11.4c-1.8-3.3-2.9-6.9-3.3-10.6c-0.5-3.6-0.2-7.2,0.7-10.7 c0.9-3.2,2.4-6.2,4.5-8.7c2.1-2.5,4.7-4.6,7.6-6.2c3.1-1.7,6.5-2.7,10-3.1c3.1-0.4,6.3-0.3,9.4,0.3c2.6,0.5,5.1,1.5,7.3,2.9 c2,1.3,3.7,2.9,4.9,4.9c1.2,1.8,2,3.9,2.2,6.1c0.3,2.2,0.1,4.4-0.5,6.5c-0.7,2.1-2,4-3.8,5.3c-2.4,1.9-5.3,3.3-8.3,4 c-3.8,0.9-8.7,1.2-14.3,1.9L237.8,350.6z M236.7,340.8c3.3,0,6.6-0.2,9.9-0.7c1.8-0.2,3.6-0.7,5.2-1.3c0.9-0.3,1.6-0.9,2.1-1.8 c0.2-0.6,0.4-1.3,0.4-1.9c0-1.4-0.7-2.7-1.9-3.5c-1.6-1.1-3.6-1.6-5.5-1.4c-1.5,0-3.1,0.3-4.5,1c-2.4,1.1-4.2,3.2-5.1,5.7 C237,338.2,236.7,339.5,236.7,340.8L236.7,340.8z"></path> <path id="Path_304" class="st0" d="M272.8,304.4c0,0,10.1-3.4,12.9-4.5c0.4-0.2,0.9-0.1,1.1,0.3c0.1,0.1,0.1,0.3,0.1,0.4v23.1 c1.6-1.4,3.3-2.6,5.2-3.5c2.8-1.3,5.8-1.9,8.9-1.8c6.3,0,12.3,2.5,16.7,7.1c2.2,2.3,3.9,5.1,5.1,8.1c1.3,3.4,1.9,7,1.9,10.6 c0,3.6-0.6,7.2-2,10.5c-1.3,3.1-3.1,5.8-5.5,8.1c-2.4,2.3-5.3,4-8.4,5.2c-3.3,1.3-6.9,1.9-10.5,1.9c-4.3,0.1-8.6-0.8-12.5-2.5 c-3.7-1.6-6.9-4.1-9.3-7.3c-1.6-2.3-2.8-4.8-3.5-7.6c-0.9-3.5-1.3-7-1.2-10.6v-34.8C271.6,307.1,271.6,304.9,272.8,304.4z M297.8,355.7c3,0.1,5.8-1.1,7.9-3.2c2.1-2.2,3.3-5.2,3.1-8.3c0.1-3.1-1-6.2-3.1-8.5c-3.2-3.3-8.1-4.2-12.3-2.4 c-2.7,1.2-4.8,3.5-5.8,6.2c-0.6,1.5-0.8,3.1-0.8,4.6c0,3.6,1,6.4,3.1,8.4C292,354.7,294.9,355.8,297.8,355.7L297.8,355.7z"></path> <path id="Path_305" class="st0" d="M377.6,384.1c0,0-9.4,3.2-12.2,4.3c-0.4,0.2-0.9,0.1-1.1-0.3c-0.1-0.1-0.1-0.3-0.1-0.4v-23.1 c-1.6,1.4-3.3,2.6-5.2,3.5c-2.8,1.3-5.8,1.9-8.9,1.8c-6.3,0-12.3-2.5-16.7-7.1c-2.2-2.3-3.9-5.1-5.1-8.1c-1.3-3.4-1.9-7-1.9-10.6 c0-3.6,0.6-7.2,2-10.5c1.3-3.1,3.1-5.8,5.5-8.1c2.4-2.3,5.3-4,8.4-5.2c3.3-1.3,6.9-1.9,10.5-1.9c4.3-0.1,8.6,0.8,12.5,2.5 c3.7,1.6,6.9,4.1,9.3,7.3c1.6,2.3,2.8,4.8,3.5,7.6c0.9,3.5,1.3,7,1.2,10.6v35.2C379.5,382.7,378.7,383.7,377.6,384.1z M353.3,332.5c-3-0.1-5.8,1.1-7.9,3.2c-2.1,2.2-3.3,5.2-3.1,8.3c-0.1,3.1,1,6.2,3.1,8.5c3.2,3.3,8.1,4.2,12.3,2.4 c2.7-1.2,4.8-3.5,5.8-6.2c0.6-1.5,0.8-3.1,0.8-4.6c0-3.6-1-6.4-3.1-8.4C359.1,333.6,356.3,332.4,353.3,332.5L353.3,332.5z"></path> </g> <g id="surface1" transform="translate(502.199 3069.777)"> <path id="Path_307" class="st1" d="M836.6,557.3l0.1,13.3h2v-13.3H836.6z"></path> <path id="Path_308" class="st1" d="M861.2,557.3v13.3h2.4v-4.8c0,0,3.6,5,3.6,4.9s2.1-0.8,2.1-0.8l-3.5-4.6c0,0,3-3.3,3-3.4 c-0.6-0.3-1.1-0.5-1.7-0.7l-3.4,3.7v-7.7L861.2,557.3z"></path> <path id="Path_309" class="st1" d="M821.6,561.4c-0.8,0.1-1.5,0.6-2,1.3c-0.3,0.6-0.3,1.4,0,2c0.5,0.7,1.1,1.3,1.8,1.7 c1,0.7,1.4,1.1,1.5,1.4c0.2,0.5-0.1,1-0.6,1.2c-0.2,0.1-0.5,0.2-0.8,0.1c-0.6,0-1.1-0.2-1.6-0.6c-0.2-0.1-0.4-0.2-0.4-0.2 l-0.4,0.6l-0.4,0.6l0.1,0.1l0.6,0.3c1.6,0.9,3.6,0.8,5.1-0.3c0.6-0.5,1-1.4,0.8-2.2c-0.1-0.8-0.5-1.3-1.9-2.2 c-0.6-0.4-1.2-0.9-1.7-1.4c-0.2-0.4-0.1-0.8,0.3-1c0,0,0,0,0,0c0,0,0.1,0,0.1-0.1c0.2-0.1,0.5-0.2,0.8-0.1c0.4,0,0.7,0.1,1,0.3 l0.5,0.2l0.3-0.5c0.1-0.2,0.2-0.4,0.3-0.6c-0.4-0.2-0.8-0.4-1.2-0.5C823.1,561.4,822.3,561.3,821.6,561.4L821.6,561.4z"></path> <path id="Path_310" class="st1" d="M832.1,562.5c1.2,0.9,1.7,2.4,1.3,3.8c-0.1,0.6-0.2,1.2-0.5,1.7c-0.2,0.4-0.6,0.7-0.9,0.9 c-0.7,0.3-1.4,0.2-2-0.3c-0.9-0.9-1.3-2.2-1-3.5c0-1.1,0.6-2.1,1.5-2.7C830.9,562.3,831.5,562.3,832.1,562.5z M831.1,561 c-0.6,0.1-1.2,0.5-1.7,0.9l-0.5,0.5v-1.1h-2.2v13.3h2.2v-5.4l0.4,0.4c0.7,0.8,1.8,1.1,2.8,0.9c0.6-0.1,1.2-0.3,1.7-0.6 c1.6-1.2,2.4-3.1,2.1-5c-0.1-1.7-1.2-3.2-2.8-3.8C832.5,560.9,831.8,560.9,831.1,561L831.1,561z"></path> <path id="Path_311" class="st1" d="M840.4,561.3c0,0,0.1,7,0.1,7.2c0.2,0.8,0.7,1.4,1.3,1.8c0.5,0.3,1.2,0.4,1.8,0.4 c1,0,2-0.3,2.7-1.1l0.4-0.4v1.3h2.3v-9.3h-2.3v6c-0.1,0.8-0.7,1.4-1.4,1.7c-0.5,0.1-0.9,0.2-1.4,0.2c-0.6-0.1-1.1-0.6-1.1-1.2 v-6.6H840.4z"></path> <path id="Path_312" class="st1" d="M859.6,570.6c0,0-0.1-7-0.1-7.2c-0.2-0.8-0.7-1.4-1.3-1.8c-0.5-0.3-1.2-0.4-1.8-0.4 c-1,0-2,0.3-2.7,1.1l-0.4,0.4v-1.3H851v9.3h2.3v-6c0.1-0.8,0.6-1.4,1.3-1.7c0.5-0.2,1-0.2,1.4-0.2c0.6,0.1,1.1,0.6,1.2,1.2v6.6 L859.6,570.6z"></path> <path id="Path_313" class="st1" d="M871.9,560.6v2l8,2.7l-8,3.4v1.9l9.3-4v-2.7L871.9,560.6z"></path> </g> <ellipse id="Ellipse_35" class="st2" cx="1351.9" cy="3246.9" rx="55.9" ry="55.9"></ellipse> <ellipse id="Ellipse_34" class="st3" cx="1522.3" cy="3339.3" rx="52.9" ry="52.9"></ellipse> <ellipse id="Ellipse_36" class="st4" cx="1183.5" cy="3532.5" rx="54.6" ry="54.6"></ellipse> <path id="Path_329" class="st5" d="M1125.7,3387.3h115.1l-57.5-97.1L1125.7,3387.3z"></path> <rect id="Rectangle_208" x="1475.1" y="3487.2" transform="matrix(0.7071 -0.7071 0.7071 0.7071 -2053.5017 2112.0691)" class="st0" width="95.4" height="95.4"></rect> <rect id="Rectangle_209" x="1303.5" y="3587" class="st6" width="97.1" height="97.1"></rect> <g id="Group_109" transform="translate(1201.297 3279.337)"> <path id="Path_314" class="st7" d="M289.3,255.8h1.8c0.4,0.1,0.8-0.2,0.8-0.7s-0.2-0.8-0.7-0.8c-0.1,0-0.1,0-0.2,0h-1.8 c0,0-0.1,0-0.1,0.1v1.3C289.2,255.8,289.2,255.8,289.3,255.8z"></path> <path id="Path_315" class="st7" d="M289.3,258.8h1.9c0.4,0.1,0.8-0.2,0.9-0.7c0,0,0-0.1,0-0.1c0-0.5-0.4-0.8-0.8-0.8 c0,0-0.1,0-0.1,0h-1.9c-0.1,0-0.1,0.1-0.1,0.1c0,0,0,0,0,0v1.4C289.2,258.8,289.2,258.8,289.3,258.8z"></path> <path id="Path_316" class="st7" d="M303.5,255c-0.4-0.5-1-0.8-1.6-0.8c-1.3,0-2.3,1.1-2.3,2.4c0,1.2,1,2.2,2.3,2.3 c0.5,0,1.1-0.2,1.5-0.5c0,0,0-0.1,0-0.1v-0.7c0-0.1-0.1-0.1-0.1-0.1h-1.6c-0.1,0-0.1-0.1-0.1-0.1v0v-1c0-0.1,0.1-0.1,0.1-0.1h0h3 v-1.6l-1,0.5C303.7,255.1,303.6,255.1,303.5,255z"></path> <g id="Group_91" transform="translate(277.703 243.27)"> <path id="Path_317" class="st7" d="M24.2,9.6c1.1,0,2.1,0.5,2.8,1.4V0.3C27,0.1,26.9,0,26.7,0c-0.1,0-0.1,0-0.1,0L13.4,9.7h0.3 c1-0.1,1.9,0.6,2.1,1.6c0,0.1,0,0.1,0,0.2c0,0.7-0.3,1.3-0.9,1.5c-0.1,0-0.1,0.1-0.1,0.1c0,0,0,0,0.1,0.1c0.7,0.3,1.1,1,1,1.7 c0,1-0.8,1.9-1.8,2c-0.1,0-0.2,0-0.3,0h-3.8c-0.1,0-0.1-0.1-0.1-0.1c0,0,0,0,0,0v-4.6l-9.8,7.2c-0.1,0.1-0.1,0.2,0,0.3 c0,0.1,0.1,0.1,0.2,0.1h26.5c0.1,0,0.2-0.1,0.2-0.2c0,0,0,0,0,0c0,0,0,0,0,0v-3.6c-0.8,0.7-1.8,1.1-2.8,1.1 c-2.1,0.1-3.8-1.6-3.8-3.6c-0.1-2.1,1.6-3.8,3.6-3.8C24,9.6,24.1,9.6,24.2,9.6L24.2,9.6z M18.9,16.8c0,0.1-0.1,0.1-0.1,0.1h-1.3 c-0.1,0-0.1-0.1-0.1-0.1v-7c0-0.1,0.1-0.1,0.1-0.1c0,0,0,0,0,0h1.3c0.1,0,0.1,0.1,0.1,0.1c0,0,0,0,0,0V16.8L18.9,16.8z"></path> <path id="Path_318" class="st7" d="M28.1,13.3c-0.1-2,1.4-3.6,3.4-3.7c0.1,0,0.2,0,0.3,0c1.1,0,2.1,0.5,2.7,1.5c0,0,0,0.1,0,0.1 c0,0,0,0,0,0l-0.8,0.4c0,0-0.1,0-0.1,0c0,0,0,0,0,0c-0.4-0.6-1-0.9-1.7-1c-1.4,0.1-2.5,1.4-2.4,2.8c0.1,1.3,1.1,2.3,2.4,2.4 c0.7,0,1.3-0.4,1.7-1c0,0,0.1-0.1,0.1,0l0,0l0.8,0.4c0.1,0,0.1,0.1,0.1,0.2l0,0c-0.6,1-1.6,1.5-2.7,1.5c-2,0-3.6-1.6-3.6-3.6 C28.1,13.4,28.1,13.4,28.1,13.3z"></path> <path id="Path_319" class="st7" d="M35.2,13.3c-0.1-1.6,1-3.1,2.6-3.6c2-0.5,4,0.8,4.5,2.8c0.1,0.6,0.1,1.1,0,1.7 c-0.3,1.7-1.8,2.9-3.5,2.8c-2,0-3.5-1.6-3.6-3.5C35.2,13.5,35.2,13.4,35.2,13.3z M41,13.3c-0.2-1.3-1.3-2.2-2.6-2 c-1.3,0.2-2.2,1.3-2,2.6c0.1,1.2,1.1,2,2.3,2c1.3,0,2.3-1.1,2.3-2.4C41.1,13.4,41,13.4,41,13.3z"></path> <path id="Path_320" class="st7" d="M49.8,16.8v-5.5l-2.2,5.5c0,0,0,0-0.1,0h-0.5c0,0-0.1,0-0.1,0l-2.2-5.5v5.5c0,0,0,0.1-0.1,0.1 c0,0,0,0,0,0h-1.1c0,0-0.1,0-0.1-0.1c0,0,0,0,0,0V9.8c0,0,0-0.1,0.1-0.1c0,0,0,0,0,0h1.6c0.1,0,0.1,0,0.2,0.1l1.9,4.9l1.9-4.9 c0-0.1,0.1-0.1,0.2-0.1h1.6c0,0,0.1,0,0.1,0.1c0,0,0,0,0,0v7c0,0,0,0.1-0.1,0.1L49.8,16.8C49.8,16.9,49.8,16.9,49.8,16.8z"></path> <path id="Path_321" class="st7" d="M62.2,16.8V9.8c0-0.1,0.1-0.1,0.1-0.1c0,0,0,0,0,0H67c0.1,0,0.1,0.1,0.1,0.1c0,0,0,0,0,0v0.9 c0,0.1-0.1,0.1-0.1,0.1h-3.4c-0.1,0-0.1,0.1-0.1,0.1c0,0,0,0,0,0v1.6c0,0.1,0.1,0.1,0.1,0.1h3.3c0.1,0,0.1,0.1,0.1,0.1v0.9 c0,0.1-0.1,0.1-0.1,0.1h-3.3c-0.1,0-0.1,0.1-0.1,0.1c0,0,0,0,0,0v1.7c0,0.1,0.1,0.1,0.1,0.1c0,0,0,0,0,0H67 c0.1,0,0.1,0.1,0.1,0.1v0.9c0,0.1-0.1,0.1-0.1,0.1c0,0,0,0,0,0h-4.7C62.3,16.9,62.2,16.9,62.2,16.8z"></path> <path id="Path_322" class="st7" d="M73,16.8l-1.5-2.6c0,0-0.1-0.1-0.1-0.1h-1.1c-0.1,0-0.1,0.1-0.1,0.1v2.4 c0,0.1-0.1,0.1-0.1,0.1h-1c-0.1,0-0.1-0.1-0.1-0.1c0,0,0,0,0,0v-7c0-0.1,0.1-0.1,0.1-0.1c0,0,0,0,0,0h3c1.2-0.1,2.3,0.8,2.4,2 c0,0.1,0,0.2,0,0.3c0.1,1-0.6,1.8-1.5,2.1c-0.1,0-0.1,0.1-0.1,0.2c0,0,0,0,0,0c0.3,0.5,1.2,1.9,1.6,2.5c0,0.1,0,0.1,0,0.2 c0,0,0,0-0.1,0h-1.2C73.1,16.9,73,16.9,73,16.8z M73.2,11.9c0-0.6-0.5-1.1-1.1-1.1c0,0-0.1,0-0.1,0h-1.6c-0.1,0-0.1,0.1-0.1,0.1 c0,0,0,0,0,0v2c0,0.1,0.1,0.1,0.1,0.1c0,0,0,0,0,0H72c0.6,0.1,1.2-0.4,1.2-1C73.2,12,73.2,12,73.2,11.9L73.2,11.9z"></path> <path id="Path_323" class="st7" d="M83,16.8V9.8c0-0.1,0.1-0.1,0.1-0.1h4.7c0.1,0,0.1,0.1,0.1,0.1c0,0,0,0,0,0v0.9 c0,0.1-0.1,0.1-0.1,0.1h-3.4c-0.1,0-0.1,0.1-0.1,0.1c0,0,0,0,0,0v1.6c0,0.1,0.1,0.1,0.1,0.1c0,0,0,0,0,0h3.3 c0.1,0,0.1,0.1,0.1,0.1c0,0,0,0,0,0v0.9c0,0.1-0.1,0.1-0.1,0.1c0,0,0,0,0,0h-3.3c-0.1,0-0.1,0.1-0.1,0.1c0,0,0,0,0,0v1.8 c0,0.1,0.1,0.1,0.1,0.1c0,0,0,0,0,0h3.4c0.1,0,0.1,0.1,0.1,0.1c0,0,0,0,0,0v0.9c0,0.1-0.1,0.1-0.1,0.1h-4.7 C83.1,16.9,83,16.9,83,16.8z"></path> <path id="Path_324" class="st7" d="M75.4,13.3c-0.1-2,1.4-3.6,3.4-3.7c0.1,0,0.2,0,0.2,0c1.1,0,2.1,0.5,2.7,1.5c0,0,0,0.1,0,0.2 c0,0,0,0,0,0c0,0,0,0,0,0l-0.8,0.4c0,0-0.1,0-0.1,0c0,0,0,0,0,0c-0.4-0.6-1-0.9-1.7-1c-1.4,0.1-2.5,1.4-2.4,2.8 c0.1,1.3,1.1,2.3,2.4,2.4c0.7,0,1.3-0.4,1.7-1c0,0,0.1-0.1,0.1,0l0,0l0.8,0.4c0.1,0,0.1,0.1,0.1,0.2l0,0c-0.6,1-1.6,1.5-2.7,1.5 c-2,0-3.6-1.5-3.6-3.5C75.4,13.4,75.4,13.3,75.4,13.3z"></path> <path id="Path_325" class="st7" d="M59.1,16.8v-5.5l-2.2,5.5c0,0,0,0-0.1,0h-0.5c0,0-0.1,0-0.1,0l-2.2-5.5v5.5c0,0,0,0.1-0.1,0.1 H53c0,0-0.1,0-0.1-0.1c0,0,0,0,0,0V9.8c0,0,0-0.1,0.1-0.1c0,0,0,0,0,0h1.6c0.1,0,0.1,0,0.2,0.1l1.9,4.9l1.9-4.9 c0-0.1,0.1-0.1,0.2-0.1h1.6c0,0,0.1,0,0.1,0.1c0,0,0,0,0,0v7c0,0,0,0.1-0.1,0.1c0,0,0,0,0,0L59.1,16.8 C59.1,16.9,59.1,16.9,59.1,16.8z"></path> </g> </g> <g id="_Group_" transform="translate(1494.812 3327.353)"> <path id="Path_326" class="st4" d="M21.9,19.9c-0.6,0-1.1,0-1.7,0v1.6h-2V20c-5.1,0.3-10.1,1.5-14.8,3.4h49.7 c1.5,0,2.6-1.2,2.6-2.6c0,0,0,0,0,0l0,0v-1.7C50.1,19.5,39.7,19.9,21.9,19.9 M21.2,15.6c0.8,0,1-0.6,1-1.2v-3.7 c0-0.8-0.3-1.4-1-1.4c-0.6,0-1,0.5-1,1.2v3.9C20.2,15.1,20.6,15.6,21.2,15.6C21.2,15.6,21.2,15.6,21.2,15.6 M48.8,9.4 c-0.6,0-1,0.4-1,1.1v1.1h2v-1.1C49.8,9.8,49.4,9.4,48.8,9.4 M47.8,13.3v1.4c0,0.9,0.4,1,1.2,1h6.7v-13c0-1.5-1.2-2.6-2.6-2.6l0,0 H2.6C1.2,0,0,1.2,0,2.6c0,0,0,0,0,0v4.9h4.1v-4h2v4h1.2v1.9H6.2v5.2c0,0.9,0.4,1,1.2,1v1.9H6.6c-1.2,0.1-2.3-0.8-2.4-2 c0-0.1,0-0.2,0-0.3V9.4H0v11.3c0,1.3,1,2.4,2.3,2.6c6.1-3,11-3.6,15.9-4.3V7.5h2v0.9c0.4-0.6,1.1-1,1.9-1c0.7-0.1,1.4,0.3,1.8,0.9 c0.3,0.7,0.4,1.4,0.3,2.1v3.8c0.1,0.8,0,1.7-0.3,2.4c-0.4,0.6-1.1,1-1.8,0.9c-0.8,0-1.5-0.4-1.8-1h0v2.1 c11.8-1.5,23.7,0.1,35.6-0.1v-1.1h-7.6c-1.2,0.1-2.3-0.8-2.4-2c0-0.1,0-0.2,0-0.3v-2.3l0,0v-2c0-0.7,0.1-1.4,0.4-2 c0.5-0.9,1.5-1.5,2.6-1.4c1.6,0,2.9,1.2,3,2.8c0,0.1,0,0.2,0,0.3v2.8L47.8,13.3L47.8,13.3z M13.5,9.5c-0.2-0.1-0.4-0.1-0.6-0.1 c-1.1,0-2,0.8-2.1,1.9c0,0.1,0,0.1,0,0.2v5.9h-2v-10h2v1.1c0.7-0.7,1.6-1.2,2.7-1.2L13.5,9.5z M16.7,17.5h-2v-10h2V17.5z M16.7,5.7h-2V3.5h2V5.7z M33.2,17.5h-1.8l-1.1-5.9h0l-1.1,5.9h-1.8l-2.4-10h2.1l1.2,6.2h0l1.1-6.2h1.6l1.1,6.2h0l1.2-6.2h2.1 L33.2,17.5z M38.9,17.5h-2v-10h2L38.9,17.5z M38.9,5.7h-2V3.5h2L38.9,5.7z M45.1,9.5c-0.2-0.1-0.4-0.1-0.6-0.1 c-1.1,0-2,0.8-2.1,1.9c0,0.1,0,0.1,0,0.2v5.9h-2v-10h2v1.1c0.7-0.7,1.6-1.2,2.7-1.2L45.1,9.5z"></path> <path id="Path_327" class="st4" d="M53,7.6h-0.3V7.4h0.7v0.1h-0.3v0.7H53L53,7.6z M54.3,7.6L54.3,7.6l-0.3,0.7H54l-0.3-0.7l0,0 v0.7h-0.1V7.4h0.2L54,8.1l0.2-0.6h0.2v0.8h-0.1L54.3,7.6z"></path> </g> <g id="layer1" transform="translate(653.285 2503.242)"> <g id="g11380" transform="translate(671.145 737.813)"> <path id="path11382" class="st0" d="M4.6,8.6L2.8,7.6L2.2,7.3C1.8,6.9,1.7,6.4,2.1,6c0.1-0.1,0.1-0.1,0.2-0.2l0.6-0.3L1,4.4 c-1.2,1-1.3,2.8-0.3,3.9c0.2,0.2,0.4,0.4,0.6,0.5l1.5,0.9l5,2.9c1.3,0.8,3,0.3,3.8-1c0.2-0.4,0.4-0.9,0.4-1.4V2.8 C12,1.3,10.8,0,9.2,0c-0.5,0-1,0.1-1.4,0.4l-5,2.9l1.5,0.9c0.1,0.1,0.2,0.1,0.3,0.2L8.8,2c0.1-0.1,0.3-0.1,0.5-0.1 c0.5,0,0.9,0.4,0.9,0.9v7.4c0,0.5-0.4,0.9-0.9,0.9c-0.2,0-0.3,0-0.5-0.1L4.6,8.6"></path> </g> <g id="g11384" transform="translate(709.978 737.24)"> <path id="path11386" class="st0" d="M1.9,9.7V4.2h2.6V2.4H1.9V0H0v9.7c0,2.9,1.8,4.5,4.5,4.2v-1.7C3.1,12.3,1.9,11.8,1.9,9.7"></path> </g> <g id="g11388" transform="translate(705.572 736.111)"> <path id="path11390" class="st0" d="M1.1,0C0.5,0,0,0.5,0,1.1s0.5,1.1,1.1,1.1c0.6,0,1.1-0.5,1.1-1.1c0,0,0,0,0,0l0,0 C2.3,0.5,1.8,0,1.1,0L1.1,0"></path> </g> <g id="g11392" transform="translate(728.274 735.39)"> <path id="path11394" class="st0" d="M1.9,12V0H0v12c0,2.1,1.7,3.8,3.8,3.8v-1.9C2.8,13.9,1.9,13,1.9,12L1.9,12"></path> </g> <g id="g11396" transform="translate(689.022 736.29)"> <path id="path11398" class="st0" d="M11.9,0L7.3,11.1L2.7,0H0v14.7h1.9V2.6l5,12.1h0.8l5-12.1v12.1h1.9V0H11.9z"></path> </g> <g id="g11400" transform="translate(664.715 737.817)"> <path id="path11402" class="st0" d="M9.2,5.4l0.6,0.3c0.4,0.3,0.5,0.9,0.2,1.3C9.9,7.1,9.9,7.2,9.8,7.3L9.2,7.6L11,8.6 c1.2-1,1.3-2.8,0.3-3.9c-0.2-0.2-0.4-0.4-0.6-0.5L9.2,3.3l-5-2.9c-1.3-0.8-3-0.3-3.8,1C0.1,1.8,0,2.3,0,2.8v7.4 C0,11.8,1.3,13,2.8,13c0.5,0,1-0.1,1.4-0.4l5-2.9L7.7,8.9C7.6,8.8,7.5,8.7,7.4,8.6L3.3,11c-0.1,0.1-0.3,0.1-0.5,0.1 c-0.5,0-0.9-0.4-0.9-0.9l0,0V2.8c0-0.5,0.4-0.9,0.9-0.9c0.2,0,0.3,0,0.5,0.1l4.1,2.4l0,0L9.2,5.4z"></path> </g> <g id="g11404" transform="translate(730.981 735.29)"> <path id="path11406" class="st0" d="M0.8,1H1c0.2,0,0.3,0,0.3-0.2c0-0.2-0.1-0.2-0.3-0.2H0.8V1z M0.7,0.4h0.5 c0.3,0,0.4,0.1,0.4,0.4c0,0.2-0.1,0.3-0.3,0.3c0,0,0,0,0,0l0.4,0.5H1.4L1.1,1.1H0.8v0.5H0.7V0.4z M1.1,2C1.6,2,2,1.6,2,1.1 c0-0.5-0.4-0.9-0.9-0.9C0.6,0.1,0.2,0.5,0.2,1v0C0.2,1.5,0.6,2,1.1,2C1,2,1.1,2,1.1,2 M1.1,0C1.6,0,2,0.4,2,0.9 c0,0.5-0.4,0.9-0.9,0.9c-0.5,0-0.9-0.4-0.9-0.9C0.2,0.4,0.6,0,1.1,0L1.1,0"></path> </g> <path id="path11408" class="st0" d="M707.7,751h-1.9v-11.5h1.9V751z"></path> <g id="g11410" transform="translate(715.181 739.398)"> <path id="path11412" class="st0" d="M5.7,1.7c1.8,0.1,3.3,1.4,3.7,3.1H2C2.4,3.1,3.9,1.8,5.7,1.7 M5.9,10.3c-2.1,0-3.8-1.7-4-3.8 h9.6C11.6,2.5,8.7,0,5.8,0C2.4,0.1-0.1,2.9,0,6.3C0.1,9.4,2.7,12,5.9,12c2.5,0.1,4.7-1.5,5.4-3.8h-2C8.7,9.5,7.3,10.4,5.9,10.3"></path> </g> </g> <g id="layer1-2" transform="translate(1140.569 3528.788)"> <g id="g23514" transform="translate(0 0)"> <path id="path23371" class="st0" d="M85.3,0.9c-0.1,0-0.1,0-0.2,0h-0.2V0.6h0.2c0.1,0,0.2,0,0.2,0c0.1,0,0.1,0.1,0.1,0.2 C85.4,0.8,85.3,0.9,85.3,0.9 M85.6,1.4C85.6,1.4,85.6,1.4,85.6,1.4V1.3c0-0.1,0-0.1-0.1-0.2c0-0.1-0.1-0.1-0.2-0.1 c0.1,0,0.1,0,0.2-0.1c0.1,0,0.1-0.1,0.1-0.2c0-0.1-0.1-0.2-0.2-0.3c-0.1,0-0.2,0-0.3,0h-0.4v1.1h0.2V1.1h0.1c0.1,0,0.1,0,0.2,0 c0.1,0.1,0.1,0.2,0.1,0.2v0.1v0c0,0,0,0,0,0c0,0,0,0,0,0L85.6,1.4L85.6,1.4C85.5,1.5,85.5,1.5,85.6,1.4"></path> <path id="path23373" class="st0" d="M85.8,1.6c-0.3,0.3-0.9,0.3-1.2,0c0,0,0,0,0,0c-0.2-0.2-0.2-0.4-0.2-0.6 c0-0.2,0.1-0.4,0.2-0.6c0.3-0.3,0.9-0.3,1.2,0c0,0,0,0,0,0C86.1,0.7,86.1,1.2,85.8,1.6 M85.2,0c-0.5,0-1,0.4-1,1c0,0.5,0.4,1,1,1 c0.5,0,1-0.4,1-1c0-0.3-0.1-0.5-0.3-0.7C85.7,0.1,85.4,0,85.2,0"></path> <path id="path23375" class="st0" d="M69.2,6.3c0,0.3-0.2,0.5-0.5,0.6C68.2,7,67.2,7,66.4,7s-1.8,0-2.3-0.1 c-0.3,0-0.5-0.3-0.5-0.6c0-0.2,0-1.3,0-1.9s0-1.7,0-1.9c0-0.3,0.2-0.5,0.5-0.6c0.5-0.1,1.6-0.1,2.3-0.1s1.8,0,2.3,0.1 c0.3,0,0.5,0.3,0.5,0.6c0,0.2,0,1.3,0,1.9S69.2,6.1,69.2,6.3 M70,0.2C68.9,0.1,67.5,0,66.4,0s-2.5,0.1-3.6,0.2 c-0.8,0.1-1.3,0.7-1.4,1.5c0,0.5-0.1,2.3-0.1,2.8s0,2.3,0.1,2.8c0,0.8,0.6,1.4,1.4,1.5c1.1,0.1,2.5,0.2,3.6,0.2s2.5,0,3.6-0.2 c0.8-0.1,1.3-0.8,1.4-1.5c0-0.5,0.1-2.3,0.1-2.8s0-2.3-0.1-2.8C71.3,0.9,70.8,0.3,70,0.2"></path> <path id="path23377" class="st0" d="M57.6,6.3c0,0.3-0.2,0.5-0.5,0.6C56.6,7,55.5,7,54.8,7S53,7,52.5,6.9c-0.3,0-0.5-0.3-0.5-0.6 c0-0.2,0-1.3,0-1.9s0-1.7,0-1.9C52,2.3,52.2,2,52.5,2C53,2,54.1,1.9,54.8,1.9s1.8,0,2.3,0.1c0.3,0,0.5,0.3,0.5,0.6 c0,0.2,0,1.3,0,1.9S57.6,6.1,57.6,6.3 M58.4,0.2C57.3,0.1,55.9,0,54.8,0s-2.5,0.1-3.6,0.2c-0.8,0.1-1.3,0.7-1.4,1.5 c0,0.5-0.1,2.3-0.1,2.8s0,2.3,0.1,2.8c0,0.8,0.6,1.4,1.4,1.5C53.6,9,56,9,58.4,8.8c0.8-0.1,1.3-0.8,1.4-1.5 c0-0.5,0.1-2.3,0.1-2.8s0-2.3-0.1-2.8C59.7,0.9,59.1,0.3,58.4,0.2"></path> <path id="path23379" class="st0" d="M45.7,3.3c0,0.3-0.2,0.5-0.5,0.6C44.8,3.9,43.7,4,43,4S41,3.9,40.6,3.9c-0.1,0-0.4,0-0.5-0.1 V2.1L40.8,2c0.5,0,1.4-0.1,2.1-0.1s1.8,0,2.3,0.1c0.3,0,0.5,0.3,0.5,0.6C45.7,2.8,45.7,3.1,45.7,3.3 M45.9,5.7L45.9,5.7 c0.2,0,0.4,0,0.7-0.1c0.5-0.1,0.9-0.4,1.1-0.8c0.1-0.3,0.2-0.5,0.2-0.8c0-0.2,0-0.5,0-0.7c0-0.6,0-1.3,0-1.6 c0-0.8-0.6-1.4-1.4-1.5C45.4,0.1,44.1,0,43,0s-2.4,0-3.5,0.1c-0.7,0.1-1.6,0.2-1.6,0.2v8.5h2.2V5.7h0c0.8,0,2,0.1,2.8,0.1 c0.2,0,0.4,0,0.6,0l2,3H48l-1.7-2.5L45.9,5.7"></path> <path id="path23381" class="st0" d="M33.4,3.5c-0.5,0-1.4,0.1-2.1,0.1h-3.1V2c0.1,0,0.5,0,0.7-0.1c0.5,0,1.5-0.1,2.3-0.1 s1.8,0.1,2.2,0.1c0.4,0,0.5,0.4,0.5,0.8S33.8,3.5,33.4,3.5 M33.4,6.9C32.9,7,31.9,7,31.2,7S29.4,7,28.9,7c-0.2,0-0.6-0.1-0.7-0.1 V5.3h3.1c0.7,0,1.6,0,2.1,0.1c0.4,0,0.5,0.4,0.5,0.8S33.8,6.9,33.4,6.9 M36.1,2.3c0-0.9-0.3-2-1.4-2.2C33.5,0.1,32.3,0,31.2,0 c-1.1,0-2.6,0-3.6,0.1C26.9,0.2,26,0.3,26,0.3v8.3c0.1,0,0.9,0.1,1.6,0.2c1,0.1,2.5,0.1,3.6,0.1c1.2,0,2.3-0.1,3.5-0.2 c1.1-0.1,1.4-1.2,1.4-2.2c0.1-0.7-0.2-1.5-0.7-2c-0.1,0-0.2-0.1-0.2-0.1c0,0,0.2-0.1,0.2-0.1C35.9,3.8,36.1,3.1,36.1,2.3"></path> <path id="path23383" class="st0" d="M17.1,2c0.5-0.1,1.6-0.1,2.3-0.1c1.1,0,2.7,0,3.8,0.1c0.2,0,0.7,0.1,0.9,0.1l0.1-1.9 c-0.2,0-0.8-0.1-1-0.1C22.2,0,20.5,0,19.4,0c-1.1,0-2.5,0.1-3.6,0.2c-0.8,0.1-1.3,0.7-1.4,1.5c0,0.5-0.1,2.3-0.1,2.8 s0,2.3,0.1,2.8c0,0.8,0.6,1.4,1.4,1.5c1.2,0.1,2.4,0.2,3.6,0.2c1.1,0,2.7,0,3.8-0.1c0.2,0,0.8-0.1,1-0.1l-0.1-1.9 c-0.2,0-0.7,0.1-0.9,0.1C22.1,7.1,20.5,7,19.4,7c-0.7,0-1.8,0-2.3-0.1c-0.3,0-0.5-0.3-0.5-0.6c0-0.1,0-0.6,0-1h5V3.6h-5 c0-0.4,0-0.9,0-1C16.6,2.3,16.8,2,17.1,2"></path> <path id="polygon23385" class="st0" d="M83.5,2V0.1h-11V2h4.4v6.9h2.2V2L83.5,2z"></path> <path id="path23387" class="st0" d="M13.1,0.1L13.1,0.1h-2.2c-0.1,0.3-0.8,2.7-0.8,3S9.6,4.7,9.5,4.9c0,0-0.2,0.4-0.2,0.4 L7.4,1.1H5.8L3.8,5.4c0,0-0.2-0.4-0.2-0.4C3.5,4.7,3.1,3.3,3,3.1s-0.8-2.7-0.8-3H0l0,0h0l0,0l0,0l0,0.1l0,0 c0.1,0.5,1.3,4.5,1.4,5s0.9,2.7,1,3.1c0,0,0,0.1,0.1,0.1l0,0C2.7,8.8,3,8.9,3.4,8.9h0.1c0.4,0,0.7-0.1,0.9-0.4l2.2-4.9l2.2,4.9 C9,8.8,9.2,8.9,9.7,8.9h0.1c0.4,0,0.7-0.1,0.9-0.5l0,0c0,0,0-0.1,0.1-0.1c0.2-0.4,0.9-2.7,1-3.1S13,0.6,13.1,0.1L13.1,0.1 L13.1,0.1L13.1,0.1L13.1,0.1L13.1,0.1z"></path> </g> </g> <g id="Group_293" transform="translate(8510 806)"> <g id="Group_291"> <g class="st8"> <path class="st0" d="M-7450,2565h1.8l-2.6,5v3h-1.7v-3l-2.6-5h1.8l1.6,3.5L-7450,2565z"></path> <path class="st0" d="M-7442.6,2570.1c0,0.4-0.1,0.8-0.2,1.2c-0.1,0.4-0.3,0.7-0.6,1c-0.3,0.3-0.6,0.5-0.9,0.6 c-0.4,0.2-0.8,0.2-1.3,0.2c-0.5,0-0.9-0.1-1.3-0.2c-0.4-0.2-0.7-0.4-0.9-0.6c-0.3-0.3-0.4-0.6-0.6-1c-0.1-0.4-0.2-0.8-0.2-1.2 s0.1-0.8,0.2-1.2c0.1-0.4,0.3-0.7,0.6-1c0.3-0.3,0.6-0.5,0.9-0.7s0.8-0.2,1.3-0.2c0.5,0,0.9,0.1,1.3,0.2 c0.4,0.2,0.7,0.4,0.9,0.7c0.3,0.3,0.4,0.6,0.6,1C-7442.6,2569.3-7442.6,2569.7-7442.6,2570.1z M-7444.2,2570.1 c0-0.2,0-0.5-0.1-0.7c0-0.2-0.1-0.4-0.2-0.6c-0.1-0.2-0.3-0.3-0.4-0.4s-0.4-0.2-0.6-0.2c-0.3,0-0.5,0.1-0.6,0.2 c-0.2,0.1-0.3,0.2-0.4,0.4c-0.1,0.2-0.2,0.4-0.2,0.6c0,0.2-0.1,0.5-0.1,0.7s0,0.5,0.1,0.7c0,0.2,0.1,0.4,0.2,0.6 c0.1,0.2,0.2,0.3,0.4,0.4c0.2,0.1,0.4,0.2,0.6,0.2c0.2,0,0.5-0.1,0.6-0.2s0.3-0.2,0.4-0.4c0.1-0.2,0.2-0.4,0.2-0.6 C-7444.2,2570.6-7444.2,2570.3-7444.2,2570.1z"></path> <path class="st0" d="M-7436.2,2567.2v5.8h-1.6v-0.8c-0.2,0.3-0.5,0.5-0.7,0.7c-0.3,0.1-0.6,0.2-1,0.2c-0.4,0-0.7-0.1-1-0.2 c-0.3-0.2-0.5-0.4-0.6-0.6c-0.2-0.3-0.3-0.6-0.4-0.9c-0.1-0.4-0.1-0.7-0.1-1.1v-3h1.6v3c0,0.5,0.1,0.9,0.2,1.2 c0.1,0.3,0.4,0.4,0.8,0.4c0.2,0,0.4-0.1,0.6-0.2c0.2-0.1,0.3-0.2,0.4-0.4v-4.1H-7436.2z"></path> <path class="st0" d="M-7431,2568.6h-0.3c-0.4,0-0.7,0.1-1,0.2s-0.5,0.3-0.6,0.6v3.7h-1.6v-5.8h1.6v1c0.1-0.3,0.3-0.6,0.5-0.8 c0.2-0.2,0.6-0.3,1-0.3c0.2,0,0.3,0,0.5,0.1V2568.6z"></path> </g> <g class="st8"> <path class="st0" d="M-7463.5,2580.9c0.2,0,0.4,0,0.6,0c0.2,0,0.4,0,0.6,0.1c0.2,0,0.4,0.1,0.6,0.1c0.2,0.1,0.3,0.1,0.5,0.2 l-0.2,1.2c-0.3-0.1-0.5-0.2-0.9-0.2c-0.3-0.1-0.6-0.1-0.9-0.1c-0.9,0-1.6,0.2-2.1,0.7c-0.5,0.5-0.7,1.2-0.7,2.1s0.2,1.6,0.7,2.1 c0.5,0.5,1.2,0.7,2.1,0.7c0.3,0,0.6,0,0.9-0.1c0.3-0.1,0.6-0.1,0.9-0.2l0.2,1.2c-0.1,0.1-0.3,0.1-0.5,0.2 c-0.2,0.1-0.4,0.1-0.6,0.1c-0.2,0-0.4,0.1-0.6,0.1s-0.4,0-0.6,0c-0.7,0-1.3-0.1-1.8-0.3c-0.5-0.2-1-0.5-1.3-0.9 c-0.4-0.4-0.6-0.8-0.8-1.3s-0.3-1.1-0.3-1.7s0.1-1.2,0.3-1.7s0.5-0.9,0.8-1.3c0.4-0.4,0.8-0.7,1.3-0.9 C-7464.8,2581-7464.2,2580.9-7463.5,2580.9z"></path> <path class="st0" d="M-7454.6,2586.1c0,0.4-0.1,0.8-0.2,1.2c-0.1,0.4-0.3,0.7-0.6,1c-0.3,0.3-0.6,0.5-0.9,0.6 c-0.4,0.2-0.8,0.2-1.3,0.2c-0.5,0-0.9-0.1-1.3-0.2c-0.4-0.2-0.7-0.4-0.9-0.6c-0.3-0.3-0.4-0.6-0.6-1c-0.1-0.4-0.2-0.8-0.2-1.2 s0.1-0.8,0.2-1.2c0.1-0.4,0.3-0.7,0.6-1c0.3-0.3,0.6-0.5,0.9-0.7s0.8-0.2,1.3-0.2c0.5,0,0.9,0.1,1.3,0.2 c0.4,0.2,0.7,0.4,0.9,0.7c0.3,0.3,0.4,0.6,0.6,1C-7454.6,2585.3-7454.6,2585.7-7454.6,2586.1z M-7456.2,2586.1 c0-0.2,0-0.5-0.1-0.7c0-0.2-0.1-0.4-0.2-0.6c-0.1-0.2-0.3-0.3-0.4-0.4s-0.4-0.2-0.6-0.2c-0.3,0-0.5,0.1-0.6,0.2 c-0.2,0.1-0.3,0.2-0.4,0.4c-0.1,0.2-0.2,0.4-0.2,0.6c0,0.2-0.1,0.5-0.1,0.7s0,0.5,0.1,0.7c0,0.2,0.1,0.4,0.2,0.6 c0.1,0.2,0.2,0.3,0.4,0.4c0.2,0.1,0.4,0.2,0.6,0.2c0.2,0,0.5-0.1,0.6-0.2s0.3-0.2,0.4-0.4c0.1-0.2,0.2-0.4,0.2-0.6 C-7456.2,2586.6-7456.2,2586.3-7456.2,2586.1z"></path> <path class="st0" d="M-7447,2584.3c-0.3,0-0.5,0.1-0.7,0.2c-0.2,0.1-0.3,0.3-0.4,0.5c0,0.1,0,0.3,0.1,0.5c0,0.2,0,0.3,0,0.5v3 h-1.6v-3c0-0.5-0.1-0.9-0.2-1.2c-0.2-0.3-0.4-0.4-0.8-0.4c-0.2,0-0.5,0.1-0.6,0.2c-0.2,0.1-0.3,0.2-0.4,0.4v4.1h-1.6v-5.8h1.6 v0.8c0.2-0.3,0.4-0.5,0.7-0.7c0.3-0.1,0.6-0.2,1-0.2c0.4,0,0.7,0.1,1,0.3c0.3,0.2,0.5,0.4,0.6,0.7c0.3-0.4,0.6-0.6,0.9-0.8 c0.3-0.2,0.7-0.2,1.1-0.2c0.4,0,0.7,0.1,1,0.2c0.3,0.1,0.5,0.4,0.6,0.6s0.3,0.6,0.4,0.9c0.1,0.4,0.1,0.7,0.1,1.2v3h-1.6v-3 c0-0.5-0.1-0.9-0.2-1.2C-7446.4,2584.5-7446.7,2584.3-7447,2584.3z"></path> <path class="st0" d="M-7442.9,2583.2h1.6v0.7c0.2-0.3,0.4-0.5,0.7-0.6c0.3-0.2,0.6-0.2,1.1-0.2c0.4,0,0.7,0.1,1,0.2 c0.3,0.1,0.5,0.3,0.7,0.6c0.2,0.3,0.4,0.6,0.5,0.9c0.1,0.4,0.2,0.8,0.2,1.2c0,0.5-0.1,1-0.2,1.3c-0.2,0.4-0.4,0.7-0.6,1 s-0.6,0.5-1,0.6c-0.4,0.1-0.8,0.2-1.2,0.2c-0.2,0-0.4,0-0.6,0c-0.2,0-0.3-0.1-0.5-0.1v2.5h-1.6V2583.2z M-7440.1,2584.3 c-0.3,0-0.5,0.1-0.7,0.2c-0.2,0.1-0.4,0.2-0.5,0.4v2.9c0.1,0,0.2,0.1,0.4,0.1c0.1,0,0.3,0,0.4,0c0.6,0,1-0.2,1.2-0.5 c0.3-0.3,0.4-0.8,0.4-1.3c0-0.5-0.1-0.9-0.3-1.2C-7439.4,2584.5-7439.7,2584.3-7440.1,2584.3z"></path> <path class="st0" d="M-7432.8,2588.4c-0.2,0.2-0.5,0.4-0.8,0.5c-0.3,0.1-0.7,0.2-1.1,0.2c-0.3,0-0.5,0-0.7-0.1s-0.4-0.2-0.5-0.3 c-0.1-0.1-0.3-0.3-0.3-0.5c-0.1-0.2-0.1-0.4-0.1-0.7c0-0.5,0.2-0.9,0.5-1.2s0.9-0.4,1.5-0.5c0.2,0,0.5,0,0.7,0 c0.3,0,0.5,0,0.7,0v-0.2c0-0.4-0.1-0.7-0.3-0.9c-0.2-0.2-0.5-0.3-0.9-0.3c-0.3,0-0.6,0-0.9,0.1s-0.5,0.2-0.7,0.3l-0.3-1.2 c0.3-0.2,0.6-0.3,1-0.4c0.4-0.1,0.8-0.1,1.2-0.1c0.8,0,1.4,0.2,1.8,0.6s0.7,1.1,0.7,1.9v3.4h-1.6V2588.4z M-7434.1,2588 c0.2,0,0.4,0,0.6-0.1c0.2-0.1,0.4-0.2,0.5-0.3v-0.9c-0.2,0-0.3,0-0.5,0c-0.2,0-0.4,0-0.5,0.1c-0.2,0-0.4,0.1-0.6,0.2 s-0.2,0.2-0.2,0.5c0,0.2,0.1,0.3,0.2,0.4C-7434.4,2588-7434.3,2588-7434.1,2588z"></path> <path class="st0" d="M-7429.7,2589v-5.8h1.6v0.8c0.2-0.3,0.4-0.5,0.7-0.7c0.3-0.1,0.6-0.2,1-0.2c0.4,0,0.7,0.1,1,0.2 c0.3,0.2,0.5,0.4,0.7,0.6c0.2,0.3,0.3,0.6,0.4,0.9c0.1,0.4,0.1,0.7,0.1,1.1v3h-1.6v-3c0-0.5-0.1-0.9-0.2-1.2 c-0.2-0.3-0.4-0.4-0.8-0.4c-0.2,0-0.4,0.1-0.6,0.2c-0.2,0.1-0.3,0.2-0.4,0.4v4.1H-7429.7z"></path> <path class="st0" d="M-7422.3,2591.5l0.8-2.3l-2.1-6h1.7l1.2,4.3l1.2-4.3h1.7l-2.8,8.3H-7422.3z"></path> </g> <g class="st8"> <path class="st0" d="M-7449.7,2605v-3.4h-3.3v3.4h-1.7v-8h1.7v3.2h3.3v-3.2h1.7v8H-7449.7z"></path> <path class="st0" d="M-7443.9,2599c0.4,0,0.7,0.1,1,0.2c0.3,0.1,0.6,0.3,0.8,0.5c0.2,0.2,0.4,0.5,0.5,0.8c0.1,0.3,0.2,0.7,0.2,1 c0,0.2,0,0.3,0,0.5s0,0.3-0.1,0.5h-3.5c0,0.4,0.1,0.8,0.4,1c0.2,0.3,0.6,0.4,1.2,0.4c0.3,0,0.6,0,0.9-0.1 c0.3-0.1,0.6-0.1,0.8-0.2l0.2,1.1c-0.3,0.1-0.6,0.3-1,0.3c-0.4,0.1-0.7,0.1-1.1,0.1c-0.5,0-0.9-0.1-1.3-0.2 c-0.4-0.1-0.7-0.3-1-0.6c-0.3-0.3-0.5-0.6-0.6-1c-0.1-0.4-0.2-0.8-0.2-1.2c0-0.5,0.1-0.9,0.2-1.3c0.1-0.4,0.3-0.7,0.6-1 c0.2-0.3,0.5-0.5,0.9-0.6C-7444.7,2599.1-7444.3,2599-7443.9,2599z M-7444,2600.1c-0.3,0-0.6,0.1-0.8,0.4 c-0.2,0.2-0.3,0.5-0.3,0.9h2c0-0.4,0-0.7-0.2-0.9C-7443.4,2600.3-7443.6,2600.1-7444,2600.1z"></path> <path class="st0" d="M-7436.7,2600.6h-0.3c-0.4,0-0.7,0.1-1,0.2s-0.5,0.3-0.6,0.6v3.7h-1.6v-5.8h1.6v1c0.1-0.3,0.3-0.6,0.5-0.8 c0.2-0.2,0.6-0.3,1-0.3c0.2,0,0.3,0,0.5,0.1V2600.6z"></path> <path class="st0" d="M-7433.3,2599c0.4,0,0.7,0.1,1,0.2c0.3,0.1,0.6,0.3,0.8,0.5c0.2,0.2,0.4,0.5,0.5,0.8c0.1,0.3,0.2,0.7,0.2,1 c0,0.2,0,0.3,0,0.5s0,0.3-0.1,0.5h-3.5c0,0.4,0.1,0.8,0.4,1c0.2,0.3,0.6,0.4,1.2,0.4c0.3,0,0.6,0,0.9-0.1 c0.3-0.1,0.6-0.1,0.8-0.2l0.2,1.1c-0.3,0.1-0.6,0.3-1,0.3c-0.4,0.1-0.7,0.1-1.1,0.1c-0.5,0-0.9-0.1-1.3-0.2 c-0.4-0.1-0.7-0.3-1-0.6c-0.3-0.3-0.5-0.6-0.6-1c-0.1-0.4-0.2-0.8-0.2-1.2c0-0.5,0.1-0.9,0.2-1.3c0.1-0.4,0.3-0.7,0.6-1 c0.2-0.3,0.5-0.5,0.9-0.6C-7434.2,2599.1-7433.8,2599-7433.3,2599z M-7433.4,2600.1c-0.3,0-0.6,0.1-0.8,0.4 c-0.2,0.2-0.3,0.5-0.3,0.9h2c0-0.4,0-0.7-0.2-0.9C-7432.8,2600.3-7433.1,2600.1-7433.4,2600.1z"></path> </g> <g id="Group_290" transform="matrix(0.998, 0.07, -0.07, 0.998, 162.278, 506.109)"> <path id="Path_525" class="st9" d="M-7385,2531l6.8,6.8l-6.8,6.8"></path> <path id="Path_526" class="st10" d="M-7440.9,2573.5c5.3-11.2,11.8-16.7,17.2-19.7c3.2-1.6,14.4-7.9,21.7-0.9 c0,0,5.5,5.2-0.7,10.5c-4.1,2.7-8.7,1.2-10.5-2c-1.3-2.3-1.5-5.1-0.5-7.6c0,0,2.7-6.2,10.6-11.1c4.9-2.8,12.5-5.1,23.7-5"></path> </g> </g> </g> </g> </svg> 